<?xml version="1.0" encoding="UTF-8"?>

<svg
xmlns="http://www.w3.org/2000/svg"
width="1600"
height="700"
viewBox="0 0 1600 700">

<defs>

<linearGradient id="bg" x1="0%" y1="0%" x2="100%" y2="100%">
<stop offset="0%" stop-color="#050816"/>
<stop offset="50%" stop-color="#07192f"/>
<stop offset="100%" stop-color="#02040d"/>
</linearGradient>

<linearGradient id="cyan" x1="0%" y1="0%" x2="100%" y2="0%">
<stop offset="0%" stop-color="#00d9ff"/>
<stop offset="100%" stop-color="#0077ff"/>
</linearGradient>

<filter id="glow">
<feGaussianBlur stdDeviation="5" result="blur"/>
<feMerge>
<feMergeNode in="blur"/>
<feMergeNode in="SourceGraphic"/>
</feMerge>
</filter>

<style>

.title{
font-family:Arial;
font-size:74px;
font-weight:bold;
fill:white;
}

.subtitle{
font-family:Arial;
font-size:28px;
letter-spacing:4px;
fill:#55ddff;
}

.label{
font-family:Arial;
font-size:20px;
fill:#8fdfff;
}

.value{
font-family:Consolas;
font-size:22px;
fill:white;
}

.small{
font-family:Arial;
font-size:18px;
fill:white;
}

</style>

</defs>

<rect
width="1600"
height="700"
fill="url(#bg)"/>

<g opacity="0.15">

<path d="M0 80 H1600"/>
<path d="M0 160 H1600"/>
<path d="M0 240 H1600"/>
<path d="M0 320 H1600"/>
<path d="M0 400 H1600"/>
<path d="M0 480 H1600"/>
<path d="M0 560 H1600"/>
<path d="M0 640 H1600"/>

</g>

<g opacity="0.08">

<path d="M200 0 V700"/>
<path d="M400 0 V700"/>
<path d="M600 0 V700"/>
<path d="M800 0 V700"/>
<path d="M1000 0 V700"/>
<path d="M1200 0 V700"/>
<path d="M1400 0 V700"/>

</g>

<rect
x="20"
y="20"
width="1560"
height="660"
rx="18"
fill="none"
stroke="#00c8ff"
stroke-width="3"/>

<circle
cx="180"
cy="180"
r="120"
fill="none"
stroke="#00d9ff"
stroke-width="4"
filter="url(#glow)"/>

<circle
cx="180"
cy="180"
r="90"
fill="none"
stroke="#008cff"
stroke-width="2"/>

<circle
cx="180"
cy="180"
r="60"
fill="#07192f"
stroke="#00d9ff"
stroke-width="3"/>

<text
x="135"
y="197"
font-size="70"
fill="#00d9ff"
font-family="Consolas">&lt;/&gt;</text>

<!-- LEFT PANEL -->

<rect
x="60"
y="320"
width="300"
height="300"
rx="18"
fill="#081523"
stroke="#00d9ff"
stroke-width="2"/>

<text
x="90"
y="360"
class="label">
SYSTEM.INFO
</text>

<line
x1="90"
y1="375"
x2="330"
y2="375"
stroke="#00d9ff"
stroke-width="2"/>

<text x="90" y="410" class="small">
NAME
</text>

<text x="90" y="440" class="value">
ALFI MUNADI
</text>

<text x="90" y="485" class="small">
ROLE
</text>

<text x="90" y="515" class="value">
COMPUTATIONAL
</text>

<text x="90" y="545" class="value">
GEOPHYSICIST
</text>

<text x="90" y="590" class="small">
LOCATION
</text>

<text x="90" y="620" class="value">
BANDA ACEH
</text>
<!-- ========================= -->
<!-- MAIN TITLE -->
<!-- ========================= -->

<text
x="470"
y="150"
class="title"
filter="url(#glow)">
ALFI MUNADI
</text>

<text
x="470"
y="205"
class="subtitle">
COMPUTATIONAL GEOPHYSICIST
</text>

<line
x1="470"
y1="230"
x2="1370"
y2="230"
stroke="url(#cyan)"
stroke-width="4"/>

<!-- ========================= -->
<!-- DESCRIPTION -->
<!-- ========================= -->

<text
x="470"
y="290"
class="label">
Research Interests
</text>

<rect
x="470"
y="315"
width="220"
height="42"
rx="8"
fill="#0c2035"
stroke="#00d9ff"/>

<text
x="490"
y="343"
class="small">
Gravity Modelling
</text>

<rect
x="720"
y="315"
width="210"
height="42"
rx="8"
fill="#0c2035"
stroke="#00d9ff"/>

<text
x="740"
y="343"
class="small">
Gravity Inversion
</text>

<rect
x="960"
y="315"
width="210"
height="42"
rx="8"
fill="#0c2035"
stroke="#00d9ff"/>

<text
x="980"
y="343"
class="small">
Machine Learning
</text>

<rect
x="1200"
y="315"
width="170"
height="42"
rx="8"
fill="#0c2035"
stroke="#00d9ff"/>

<text
x="1225"
y="343"
class="small">
Python
</text>
<!-- ========================= -->
<!-- TOOLS & LANGUAGES -->
<!-- ========================= -->

<rect
x="470"
y="400"
width="900"
height="180"
rx="15"
fill="#081523"
stroke="#00d9ff"
stroke-width="2"/>

<text
x="500"
y="440"
class="label">
TOOLS & LANGUAGES
</text>

<line
x1="500"
y1="450"
x2="1330"
y2="450"
stroke="#00d9ff"
stroke-width="2"/>

<text
x="520"
y="500"
class="value">
Python
</text>

<text
x="720"
y="500"
class="value">
MATLAB
</text>

<text
x="950"
y="500"
class="value">
Fortran
</text>

<text
x="1160"
y="500"
class="value">
R
</text>

<text
x="520"
y="550"
class="small">
✔ Scientific Computing
</text>

<text
x="820"
y="550"
class="small">
✔ Gravity Modelling
</text>

<text
x="1120"
y="550"
class="small">
✔ Machine Learning
</text>
<!-- ========================= -->
<!-- FOOTER -->
<!-- ========================= -->

<line
x1="470"
y1="610"
x2="1370"
y2="610"
stroke="url(#cyan)"
stroke-width="3"/>

<text
x="470"
y="650"
class="small">
Universitas Syiah Kuala
</text>

<text
x="820"
y="650"
class="small">
Banda Aceh • Indonesia
</text>

<text
x="1120"
y="650"
class="small">
github.com/Alfimunadi23
</text>

<!-- ========================= -->
<!-- QUOTE -->
<!-- ========================= -->

<text
x="470"
y="690"
font-size="18"
fill="#66ddff"
font-family="Arial"
font-style="italic">
"Keep learning • Keep Exploring • Keep Innovating"
</text>
<!-- ========================= -->
<!-- CYBER DECORATION -->
<!-- ========================= -->

<circle cx="1480" cy="110" r="10" fill="#00d9ff"/>
<circle cx="1510" cy="140" r="6" fill="#00d9ff"/>
<circle cx="1455" cy="165" r="4" fill="#00d9ff"/>

<line x1="1470" y1="110" x2="1520" y2="160"
stroke="#00d9ff"
stroke-width="2"/>

<line x1="1455" y1="165" x2="1510" y2="140"
stroke="#00d9ff"
stroke-width="2"/>

<!-- ========================= -->
<!-- GLOW FRAME -->
<!-- ========================= -->

<rect
x="10"
y="10"
width="1580"
height="680"
rx="20"
fill="none"
stroke="#00d9ff"
stroke-width="1"
opacity="0.4"/>

<rect
x="30"
y="30"
width="1540"
height="640"
rx="18"
fill="none"
stroke="#008cff"
stroke-width="1"
opacity="0.25"/>

<!-- ========================= -->
<!-- COPYRIGHT -->
<!-- ========================= -->

<text
x="800"
y="680"
text-anchor="middle"
font-family="Arial"
font-size="14"
fill="#55ddff">

© 2026 Alfi Munadi • Computational Geophysics

</text>

</svg>